<mxfile host="app.diagrams.net" modified="2023-04-26T14:14:37.469Z" agent="Mozilla/5.0 (X11; Ubuntu; Linux x86_64; rv:109.0) Gecko/20100101 Firefox/112.0" etag="aXNXRmRgme50IXk7EZge" version="21.2.1" type="device">
  <diagram id="fC97jBpM_xTiCUfCGoVt" name="AvalonMM_to_hRAM">
    <mxGraphModel dx="1578" dy="826" grid="1" gridSize="10" guides="1" tooltips="1" connect="1" arrows="1" fold="1" page="1" pageScale="1" pageWidth="850" pageHeight="1100" math="0" shadow="0">
      <root>
        <mxCell id="0" />
        <mxCell id="1" parent="0" />
        <mxCell id="tyazFwi2D3Fx87An2y98-1" value="" style="rounded=0;whiteSpace=wrap;html=1;" parent="1" vertex="1">
          <mxGeometry x="240" y="200" width="320" height="400" as="geometry" />
        </mxCell>
        <mxCell id="tyazFwi2D3Fx87An2y98-3" value="&lt;font style=&quot;font-size: 15px;&quot;&gt;avs_s0_&lt;font style=&quot;font-size: 15px;&quot;&gt;address&lt;/font&gt;&lt;/font&gt;" style="text;html=1;align=left;verticalAlign=middle;resizable=0;points=[];autosize=1;strokeColor=none;fillColor=none;" parent="1" vertex="1">
          <mxGeometry x="245" y="225" width="130" height="30" as="geometry" />
        </mxCell>
        <mxCell id="tyazFwi2D3Fx87An2y98-4" value="&lt;font style=&quot;font-size: 15px;&quot;&gt;avs_s0_&lt;/font&gt;readdata" style="text;html=1;align=left;verticalAlign=middle;resizable=0;points=[];autosize=1;strokeColor=none;fillColor=none;fontSize=15;" parent="1" vertex="1">
          <mxGeometry x="245" y="265" width="140" height="30" as="geometry" />
        </mxCell>
        <mxCell id="tyazFwi2D3Fx87An2y98-7" value="&lt;font style=&quot;font-size: 15px;&quot;&gt;avs_s0_&lt;/font&gt;read" style="text;html=1;align=left;verticalAlign=middle;resizable=0;points=[];autosize=1;strokeColor=none;fillColor=none;fontSize=15;" parent="1" vertex="1">
          <mxGeometry x="245" y="345" width="110" height="30" as="geometry" />
        </mxCell>
        <mxCell id="tyazFwi2D3Fx87An2y98-8" value="&lt;font style=&quot;font-size: 15px;&quot;&gt;avs_s0_w&lt;/font&gt;ritedata" style="text;html=1;align=left;verticalAlign=middle;resizable=0;points=[];autosize=1;strokeColor=none;fillColor=none;fontSize=15;" parent="1" vertex="1">
          <mxGeometry x="245" y="305" width="140" height="30" as="geometry" />
        </mxCell>
        <mxCell id="tyazFwi2D3Fx87An2y98-9" value="&lt;font style=&quot;font-size: 15px;&quot;&gt;avs_s0_&lt;font style=&quot;font-size: 15px;&quot;&gt;&lt;/font&gt;&lt;/font&gt;write" style="text;html=1;align=left;verticalAlign=middle;resizable=0;points=[];autosize=1;strokeColor=none;fillColor=none;fontSize=15;" parent="1" vertex="1">
          <mxGeometry x="245" y="385" width="110" height="30" as="geometry" />
        </mxCell>
        <mxCell id="tyazFwi2D3Fx87An2y98-10" value="&lt;font style=&quot;font-size: 15px;&quot;&gt;avs_s0_&lt;font style=&quot;font-size: 15px;&quot;&gt;&lt;/font&gt;&lt;/font&gt;waitrequest" style="text;html=1;align=left;verticalAlign=middle;resizable=0;points=[];autosize=1;strokeColor=none;fillColor=none;fontSize=15;" parent="1" vertex="1">
          <mxGeometry x="245" y="425" width="160" height="30" as="geometry" />
        </mxCell>
        <mxCell id="tyazFwi2D3Fx87An2y98-11" value="clock_clk" style="text;html=1;align=left;verticalAlign=middle;resizable=0;points=[];autosize=1;strokeColor=none;fillColor=none;fontSize=15;" parent="1" vertex="1">
          <mxGeometry x="245" y="505" width="80" height="30" as="geometry" />
        </mxCell>
        <mxCell id="tyazFwi2D3Fx87An2y98-13" value="hbus_d" style="text;html=1;align=right;verticalAlign=middle;resizable=0;points=[];autosize=1;strokeColor=none;fillColor=none;fontSize=15;" parent="1" vertex="1">
          <mxGeometry x="495" y="310" width="60" height="20" as="geometry" />
        </mxCell>
        <mxCell id="tyazFwi2D3Fx87An2y98-14" value="hbus_cs" style="text;html=1;align=right;verticalAlign=middle;resizable=0;points=[];autosize=1;strokeColor=none;fillColor=none;fontSize=15;" parent="1" vertex="1">
          <mxGeometry x="485" y="390" width="70" height="20" as="geometry" />
        </mxCell>
        <mxCell id="tyazFwi2D3Fx87An2y98-15" value="hbus_ck" style="text;html=1;align=right;verticalAlign=middle;resizable=0;points=[];autosize=1;strokeColor=none;fillColor=none;fontSize=15;" parent="1" vertex="1">
          <mxGeometry x="485" y="470" width="70" height="20" as="geometry" />
        </mxCell>
        <mxCell id="tyazFwi2D3Fx87An2y98-16" value="&lt;div&gt;hbus_rst&lt;/div&gt;" style="text;html=1;align=right;verticalAlign=middle;resizable=0;points=[];autosize=1;strokeColor=none;fillColor=none;fontSize=15;" parent="1" vertex="1">
          <mxGeometry x="485" y="430" width="70" height="20" as="geometry" />
        </mxCell>
        <mxCell id="tyazFwi2D3Fx87An2y98-17" value="&lt;div&gt;hbus_rwds&lt;/div&gt;" style="text;html=1;align=right;verticalAlign=middle;resizable=0;points=[];autosize=1;strokeColor=none;fillColor=none;fontSize=15;" parent="1" vertex="1">
          <mxGeometry x="465" y="350" width="90" height="20" as="geometry" />
        </mxCell>
        <mxCell id="tyazFwi2D3Fx87An2y98-18" value="AvalonMM_to_hRAM" style="rounded=0;whiteSpace=wrap;html=1;fontSize=15;" parent="1" vertex="1">
          <mxGeometry x="240" y="160" width="320" height="40" as="geometry" />
        </mxCell>
        <mxCell id="tyazFwi2D3Fx87An2y98-27" value="" style="endArrow=classic;html=1;rounded=0;fontSize=15;" parent="1" edge="1">
          <mxGeometry width="50" height="50" relative="1" as="geometry">
            <mxPoint x="560" y="480" as="sourcePoint" />
            <mxPoint x="620" y="480" as="targetPoint" />
          </mxGeometry>
        </mxCell>
        <mxCell id="tyazFwi2D3Fx87An2y98-29" value="1" style="text;html=1;align=center;verticalAlign=middle;resizable=0;points=[];autosize=1;strokeColor=none;fillColor=none;fontSize=15;" parent="1" vertex="1">
          <mxGeometry x="580" y="460" width="20" height="20" as="geometry" />
        </mxCell>
        <mxCell id="tyazFwi2D3Fx87An2y98-30" value="" style="endArrow=classic;html=1;rounded=0;fontSize=15;" parent="1" edge="1">
          <mxGeometry width="50" height="50" relative="1" as="geometry">
            <mxPoint x="560" y="439.9999999999999" as="sourcePoint" />
            <mxPoint x="620" y="439.9999999999999" as="targetPoint" />
          </mxGeometry>
        </mxCell>
        <mxCell id="tyazFwi2D3Fx87An2y98-31" value="1" style="text;html=1;align=center;verticalAlign=middle;resizable=0;points=[];autosize=1;strokeColor=none;fillColor=none;fontSize=15;" parent="1" vertex="1">
          <mxGeometry x="580" y="420" width="20" height="20" as="geometry" />
        </mxCell>
        <mxCell id="tyazFwi2D3Fx87An2y98-32" value="" style="endArrow=classic;html=1;rounded=0;fontSize=15;" parent="1" edge="1">
          <mxGeometry width="50" height="50" relative="1" as="geometry">
            <mxPoint x="560" y="399.9999999999999" as="sourcePoint" />
            <mxPoint x="620" y="399.9999999999999" as="targetPoint" />
          </mxGeometry>
        </mxCell>
        <mxCell id="tyazFwi2D3Fx87An2y98-33" value="1" style="text;html=1;align=center;verticalAlign=middle;resizable=0;points=[];autosize=1;strokeColor=none;fillColor=none;fontSize=15;" parent="1" vertex="1">
          <mxGeometry x="580" y="380" width="20" height="20" as="geometry" />
        </mxCell>
        <mxCell id="tyazFwi2D3Fx87An2y98-34" value="" style="endArrow=classic;html=1;rounded=0;fontSize=15;startArrow=classic;startFill=1;" parent="1" edge="1">
          <mxGeometry width="50" height="50" relative="1" as="geometry">
            <mxPoint x="560" y="359.9999999999999" as="sourcePoint" />
            <mxPoint x="620" y="359.9999999999999" as="targetPoint" />
          </mxGeometry>
        </mxCell>
        <mxCell id="tyazFwi2D3Fx87An2y98-35" value="1" style="text;html=1;align=center;verticalAlign=middle;resizable=0;points=[];autosize=1;strokeColor=none;fillColor=none;fontSize=15;" parent="1" vertex="1">
          <mxGeometry x="580" y="340" width="20" height="20" as="geometry" />
        </mxCell>
        <mxCell id="tyazFwi2D3Fx87An2y98-48" value="" style="endArrow=classic;html=1;rounded=0;fontSize=15;startArrow=classic;startFill=1;" parent="1" edge="1">
          <mxGeometry width="50" height="50" relative="1" as="geometry">
            <mxPoint x="560" y="319.9999999999999" as="sourcePoint" />
            <mxPoint x="620" y="319.9999999999999" as="targetPoint" />
          </mxGeometry>
        </mxCell>
        <mxCell id="tyazFwi2D3Fx87An2y98-49" value="8" style="text;html=1;align=center;verticalAlign=middle;resizable=0;points=[];autosize=1;strokeColor=none;fillColor=none;fontSize=15;" parent="1" vertex="1">
          <mxGeometry x="580" y="300" width="20" height="20" as="geometry" />
        </mxCell>
        <mxCell id="KE8zLy7gZJcdXnEcFr7T-1" value="reset_reset" style="text;html=1;align=left;verticalAlign=middle;resizable=0;points=[];autosize=1;strokeColor=none;fillColor=none;fontSize=15;" parent="1" vertex="1">
          <mxGeometry x="245" y="545" width="100" height="30" as="geometry" />
        </mxCell>
        <mxCell id="DO_7Ebz1yjU0auNpX0zB-1" value="&lt;font style=&quot;font-size: 15px;&quot;&gt;avs_s0_&lt;font style=&quot;font-size: 15px;&quot;&gt;&lt;/font&gt;&lt;/font&gt;readdatavalid" style="text;html=1;align=left;verticalAlign=middle;resizable=0;points=[];autosize=1;strokeColor=none;fillColor=none;fontSize=15;" parent="1" vertex="1">
          <mxGeometry x="245" y="465.69" width="170" height="30" as="geometry" />
        </mxCell>
        <mxCell id="eFn4LZjZn5dVZkU498TQ-1" value="" style="endArrow=classic;html=1;rounded=0;fontSize=15;" parent="1" edge="1">
          <mxGeometry width="50" height="50" relative="1" as="geometry">
            <mxPoint x="180" y="520" as="sourcePoint" />
            <mxPoint x="240" y="520" as="targetPoint" />
          </mxGeometry>
        </mxCell>
        <mxCell id="eFn4LZjZn5dVZkU498TQ-2" value="1" style="text;html=1;align=center;verticalAlign=middle;resizable=0;points=[];autosize=1;strokeColor=none;fillColor=none;fontSize=15;" parent="1" vertex="1">
          <mxGeometry x="200" y="500" width="20" height="20" as="geometry" />
        </mxCell>
        <mxCell id="eFn4LZjZn5dVZkU498TQ-3" value="" style="endArrow=classic;html=1;rounded=0;fontSize=15;" parent="1" edge="1">
          <mxGeometry width="50" height="50" relative="1" as="geometry">
            <mxPoint x="240" y="440" as="sourcePoint" />
            <mxPoint x="180" y="440" as="targetPoint" />
          </mxGeometry>
        </mxCell>
        <mxCell id="eFn4LZjZn5dVZkU498TQ-4" value="1" style="text;html=1;align=center;verticalAlign=middle;resizable=0;points=[];autosize=1;strokeColor=none;fillColor=none;fontSize=15;" parent="1" vertex="1">
          <mxGeometry x="200" y="419.31" width="20" height="20" as="geometry" />
        </mxCell>
        <mxCell id="eFn4LZjZn5dVZkU498TQ-5" value="" style="endArrow=classic;html=1;rounded=0;fontSize=15;" parent="1" edge="1">
          <mxGeometry width="50" height="50" relative="1" as="geometry">
            <mxPoint x="180" y="400" as="sourcePoint" />
            <mxPoint x="240" y="400" as="targetPoint" />
          </mxGeometry>
        </mxCell>
        <mxCell id="eFn4LZjZn5dVZkU498TQ-6" value="1" style="text;html=1;align=center;verticalAlign=middle;resizable=0;points=[];autosize=1;strokeColor=none;fillColor=none;fontSize=15;" parent="1" vertex="1">
          <mxGeometry x="200" y="379.31" width="20" height="20" as="geometry" />
        </mxCell>
        <mxCell id="eFn4LZjZn5dVZkU498TQ-7" value="" style="endArrow=classic;html=1;rounded=0;fontSize=15;" parent="1" edge="1">
          <mxGeometry width="50" height="50" relative="1" as="geometry">
            <mxPoint x="180" y="360" as="sourcePoint" />
            <mxPoint x="240" y="360" as="targetPoint" />
          </mxGeometry>
        </mxCell>
        <mxCell id="eFn4LZjZn5dVZkU498TQ-8" value="1" style="text;html=1;align=center;verticalAlign=middle;resizable=0;points=[];autosize=1;strokeColor=none;fillColor=none;fontSize=15;" parent="1" vertex="1">
          <mxGeometry x="200" y="339.31" width="20" height="20" as="geometry" />
        </mxCell>
        <mxCell id="eFn4LZjZn5dVZkU498TQ-9" value="" style="endArrow=classic;html=1;rounded=0;fontSize=15;" parent="1" edge="1">
          <mxGeometry width="50" height="50" relative="1" as="geometry">
            <mxPoint x="180" y="320" as="sourcePoint" />
            <mxPoint x="240" y="320" as="targetPoint" />
          </mxGeometry>
        </mxCell>
        <mxCell id="eFn4LZjZn5dVZkU498TQ-10" value="" style="endArrow=classic;html=1;rounded=0;fontSize=15;" parent="1" edge="1">
          <mxGeometry width="50" height="50" relative="1" as="geometry">
            <mxPoint x="240" y="280" as="sourcePoint" />
            <mxPoint x="180" y="280" as="targetPoint" />
          </mxGeometry>
        </mxCell>
        <mxCell id="eFn4LZjZn5dVZkU498TQ-11" value="" style="endArrow=classic;html=1;rounded=0;fontSize=15;" parent="1" edge="1">
          <mxGeometry width="50" height="50" relative="1" as="geometry">
            <mxPoint x="180" y="240" as="sourcePoint" />
            <mxPoint x="240" y="240" as="targetPoint" />
          </mxGeometry>
        </mxCell>
        <mxCell id="eFn4LZjZn5dVZkU498TQ-12" value="32" style="text;html=1;align=center;verticalAlign=middle;resizable=0;points=[];autosize=1;strokeColor=none;fillColor=none;fontSize=15;" parent="1" vertex="1">
          <mxGeometry x="195" y="220" width="30" height="20" as="geometry" />
        </mxCell>
        <mxCell id="eFn4LZjZn5dVZkU498TQ-13" value="16" style="text;html=1;align=center;verticalAlign=middle;resizable=0;points=[];autosize=1;strokeColor=none;fillColor=none;fontSize=15;" parent="1" vertex="1">
          <mxGeometry x="195" y="260" width="30" height="20" as="geometry" />
        </mxCell>
        <mxCell id="eFn4LZjZn5dVZkU498TQ-14" value="16" style="text;html=1;align=center;verticalAlign=middle;resizable=0;points=[];autosize=1;strokeColor=none;fillColor=none;fontSize=15;" parent="1" vertex="1">
          <mxGeometry x="195" y="300" width="30" height="20" as="geometry" />
        </mxCell>
        <mxCell id="eFn4LZjZn5dVZkU498TQ-15" value="" style="endArrow=classic;html=1;rounded=0;fontSize=15;" parent="1" edge="1">
          <mxGeometry width="50" height="50" relative="1" as="geometry">
            <mxPoint x="180" y="560" as="sourcePoint" />
            <mxPoint x="240" y="560" as="targetPoint" />
          </mxGeometry>
        </mxCell>
        <mxCell id="eFn4LZjZn5dVZkU498TQ-16" value="1" style="text;html=1;align=center;verticalAlign=middle;resizable=0;points=[];autosize=1;strokeColor=none;fillColor=none;fontSize=15;" parent="1" vertex="1">
          <mxGeometry x="200" y="540" width="20" height="20" as="geometry" />
        </mxCell>
        <mxCell id="eFn4LZjZn5dVZkU498TQ-17" value="" style="endArrow=classic;html=1;rounded=0;fontSize=15;" parent="1" edge="1">
          <mxGeometry width="50" height="50" relative="1" as="geometry">
            <mxPoint x="240" y="480" as="sourcePoint" />
            <mxPoint x="180" y="480" as="targetPoint" />
          </mxGeometry>
        </mxCell>
        <mxCell id="eFn4LZjZn5dVZkU498TQ-18" value="1" style="text;html=1;align=center;verticalAlign=middle;resizable=0;points=[];autosize=1;strokeColor=none;fillColor=none;fontSize=15;" parent="1" vertex="1">
          <mxGeometry x="202.5" y="460" width="20" height="20" as="geometry" />
        </mxCell>
      </root>
    </mxGraphModel>
  </diagram>
</mxfile>
